<svg width="60" height="61" viewBox="0 0 60 61" fill="none" xmlns="http://www.w3.org/2000/svg">
<path d="M59 54.595H58C57.99 53.9293 57.8486 53.2721 57.584 52.6612C57.3194 52.0502 56.9367 51.4976 56.458 51.0349C55.7689 50.3366 54.8843 49.8635 53.9209 49.678C53.4729 48.7539 52.7737 47.9746 51.9035 47.4294C51.0332 46.8841 50.027 46.595 49 46.595C47.973 46.595 46.9668 46.8841 46.0965 47.4294C45.2263 47.9746 44.5271 48.7539 44.0791 49.678C43.1157 49.8635 42.2311 50.3366 41.542 51.0349C41.0633 51.4976 40.6806 52.0502 40.416 52.6612C40.1514 53.2721 40.01 53.9293 40 54.595H28V31.595C28 31.3298 27.8946 31.0754 27.7071 30.8879C27.5196 30.7003 27.2652 30.595 27 30.595H13C12.7348 30.595 12.4804 30.7003 12.2929 30.8879C12.1054 31.0754 12 31.3298 12 31.595V54.595H8V26.9633L30 8.8894L52 26.9633V44.595C52 44.8602 52.1054 45.1145 52.2929 45.3021C52.4804 45.4896 52.7348 45.595 53 45.595C53.2652 45.595 53.5196 45.4896 53.7071 45.3021C53.8946 45.1145 54 44.8602 54 44.595V28.6064L54.9751 29.4075C55.1786 29.5748 55.4399 29.6551 55.7023 29.6307C55.9646 29.6064 56.2067 29.4795 56.376 29.2776L59.7661 25.2376C59.851 25.1363 59.915 25.0192 59.9544 24.893C59.9938 24.7668 60.0078 24.6341 59.9956 24.5024C59.9834 24.3708 59.9452 24.2429 59.8833 24.1261C59.8213 24.0094 59.7369 23.906 59.6348 23.8221L54 19.1934V2.59497C53.9995 2.0647 53.7886 1.5563 53.4136 1.18134C53.0387 0.806384 52.5303 0.5955 52 0.594971H44C43.4697 0.5955 42.9613 0.806384 42.5864 1.18134C42.2114 1.5563 42.0005 2.0647 42 2.59497V9.33624L32.4077 1.45679C31.7213 0.916844 30.8733 0.623292 30 0.623292C29.1267 0.623292 28.2787 0.916844 27.5923 1.45679L0.36523 23.822C0.263123 23.9059 0.178663 24.0093 0.116733 24.1261C0.0548018 24.2428 0.0166273 24.3707 0.0044148 24.5023C-0.00779769 24.634 0.00619415 24.7667 0.0455816 24.8929C0.084969 25.0191 0.148971 25.1362 0.23389 25.2375L3.62402 29.2775C3.79327 29.4794 4.03539 29.6063 4.29774 29.6307C4.56008 29.655 4.82142 29.5747 5.0249 29.4074L6 28.6064V54.595H1C0.734784 54.595 0.48043 54.7003 0.292893 54.8879C0.105357 55.0754 0 55.3298 0 55.595V59.595C0 59.8602 0.105357 60.1145 0.292893 60.3021C0.48043 60.4896 0.734784 60.595 1 60.595H59C59.2652 60.595 59.5196 60.4896 59.7071 60.3021C59.8946 60.1145 60 59.8602 60 59.595V55.595C60 55.3298 59.8946 55.0754 59.7071 54.8879C59.5196 54.7003 59.2652 54.595 59 54.595ZM44 2.59497H52V17.5505L44 10.9791V2.59497ZM4.52 27.2341L2.41553 24.7263L28.8618 3.00268C29.1861 2.74697 29.587 2.60791 30 2.60791C30.413 2.60791 30.8139 2.74697 31.1382 3.00268L57.5845 24.7263L55.48 27.2341L30.6348 6.82251C30.4559 6.6754 30.2316 6.59497 30 6.59497C29.7684 6.59497 29.5441 6.6754 29.3652 6.82251L4.52 27.2341ZM42.9458 52.4597C43.4149 51.9546 44.0634 51.6538 44.7519 51.6218C44.9621 51.625 45.1679 51.5619 45.3401 51.4414C45.5123 51.321 45.6423 51.1494 45.7114 50.9509C45.9448 50.2639 46.3875 49.6673 46.9773 49.2447C47.5671 48.8222 48.2744 48.595 49 48.595C49.7256 48.595 50.4329 48.8222 51.0227 49.2447C51.6125 49.6673 52.0552 50.2639 52.2886 50.9509C52.3555 51.1508 52.4849 51.3238 52.6577 51.4446C52.8304 51.5654 53.0374 51.6275 53.2481 51.6218C53.9348 51.6609 54.5808 51.9606 55.0542 52.4597C55.3445 52.736 55.5775 53.0668 55.7398 53.4332C55.902 53.7995 55.9905 54.1944 56 54.595H42C42.0095 54.1944 42.098 53.7995 42.2602 53.4332C42.4225 53.0668 42.6555 52.736 42.9458 52.4597ZM14 32.595H26V54.595H14V32.595ZM58 58.595H2V56.595H58V58.595ZM33 30.595C32.7348 30.595 32.4804 30.7003 32.2929 30.8879C32.1054 31.0754 32 31.3298 32 31.595V43.595C32 43.8602 32.1054 44.1145 32.2929 44.3021C32.4804 44.4896 32.7348 44.595 33 44.595H47C47.2652 44.595 47.5196 44.4896 47.7071 44.3021C47.8946 44.1145 48 43.8602 48 43.595V31.595C48 31.3298 47.8946 31.0754 47.7071 30.8879C47.5196 30.7003 47.2652 30.595 47 30.595H33ZM46 36.595H41V32.595H46V36.595ZM39 32.595V36.595H34V32.595H39ZM34 38.595H39V42.595H34V38.595ZM41 42.595V38.595H46V42.595H41Z" fill="#494949"/>
</svg>
