<svg width="48" height="49" viewBox="0 0 48 49" fill="none" xmlns="http://www.w3.org/2000/svg">
<path d="M23.25 45.5114H5.25C4.0125 45.5114 3 44.4989 3 43.2614V5.76135C3 4.52385 4.0125 3.51135 5.25 3.51135H32.25C33.4875 3.51135 34.5 4.52385 34.5 5.76135V20.0114C34.5 20.4239 34.8375 20.7614 35.25 20.7614C35.6625 20.7614 36 20.4239 36 20.0114V5.76135C36 3.69135 34.32 2.01135 32.25 2.01135H5.25C3.18 2.01135 1.5 3.69135 1.5 5.76135V43.2614C1.5 45.3314 3.18 47.0114 5.25 47.0114H23.25C23.6625 47.0114 24 46.6739 24 46.2614C24 45.8489 23.6625 45.5114 23.25 45.5114Z" fill="#1C1C1C"/>
<path d="M42.75 22.2614H29.25C27.18 22.2614 25.5 23.9414 25.5 26.0114V43.2614C25.5 45.3314 27.18 47.0114 29.25 47.0114H42.75C44.82 47.0114 46.5 45.3314 46.5 43.2614V26.0114C46.5 23.9414 44.82 22.2614 42.75 22.2614ZM45 43.2614C45 44.4989 43.9875 45.5114 42.75 45.5114H29.25C28.0125 45.5114 27 44.4989 27 43.2614V26.0114C27 24.7739 28.0125 23.7614 29.25 23.7614H42.75C43.9875 23.7614 45 24.7739 45 26.0114V43.2614Z" fill="#1C1C1C"/>
<path d="M42 26.0114H30C29.5875 26.0114 29.25 26.3489 29.25 26.7614V31.2614C29.25 31.6739 29.5875 32.0114 30 32.0114H42C42.4125 32.0114 42.75 31.6739 42.75 31.2614V26.7614C42.75 26.3489 42.4125 26.0114 42 26.0114ZM41.25 30.5114H30.75V27.5114H41.25V30.5114Z" fill="#1C1C1C"/>
<path d="M31.5 34.2614H30C29.5875 34.2614 29.25 34.5989 29.25 35.0114C29.25 35.4239 29.5875 35.7614 30 35.7614H31.5C31.9125 35.7614 32.25 35.4239 32.25 35.0114C32.25 34.5989 31.9125 34.2614 31.5 34.2614Z" fill="#1C1C1C"/>
<path d="M36.75 34.2614H35.25C34.8375 34.2614 34.5 34.5989 34.5 35.0114C34.5 35.4239 34.8375 35.7614 35.25 35.7614H36.75C37.1625 35.7614 37.5 35.4239 37.5 35.0114C37.5 34.5989 37.1625 34.2614 36.75 34.2614Z" fill="#1C1C1C"/>
<path d="M42 34.2614H40.5C40.0875 34.2614 39.75 34.5989 39.75 35.0114C39.75 35.4239 40.0875 35.7614 40.5 35.7614H42C42.4125 35.7614 42.75 35.4239 42.75 35.0114C42.75 34.5989 42.4125 34.2614 42 34.2614Z" fill="#1C1C1C"/>
<path d="M31.5 38.0114H30C29.5875 38.0114 29.25 38.3489 29.25 38.7614C29.25 39.1739 29.5875 39.5114 30 39.5114H31.5C31.9125 39.5114 32.25 39.1739 32.25 38.7614C32.25 38.3489 31.9125 38.0114 31.5 38.0114Z" fill="#1C1C1C"/>
<path d="M36.75 38.0114H35.25C34.8375 38.0114 34.5 38.3489 34.5 38.7614C34.5 39.1739 34.8375 39.5114 35.25 39.5114H36.75C37.1625 39.5114 37.5 39.1739 37.5 38.7614C37.5 38.3489 37.1625 38.0114 36.75 38.0114Z" fill="#1C1C1C"/>
<path d="M42 38.0114H40.5C40.0875 38.0114 39.75 38.3489 39.75 38.7614C39.75 39.1739 40.0875 39.5114 40.5 39.5114H42C42.4125 39.5114 42.75 39.1739 42.75 38.7614C42.75 38.3489 42.4125 38.0114 42 38.0114Z" fill="#1C1C1C"/>
<path d="M31.5 41.7614H30C29.5875 41.7614 29.25 42.0989 29.25 42.5114C29.25 42.9239 29.5875 43.2614 30 43.2614H31.5C31.9125 43.2614 32.25 42.9239 32.25 42.5114C32.25 42.0989 31.9125 41.7614 31.5 41.7614Z" fill="#1C1C1C"/>
<path d="M36.75 41.7614H35.25C34.8375 41.7614 34.5 42.0989 34.5 42.5114C34.5 42.9239 34.8375 43.2614 35.25 43.2614H36.75C37.1625 43.2614 37.5 42.9239 37.5 42.5114C37.5 42.0989 37.1625 41.7614 36.75 41.7614Z" fill="#1C1C1C"/>
<path d="M42 41.7614H40.5C40.0875 41.7614 39.75 42.0989 39.75 42.5114C39.75 42.9239 40.0875 43.2614 40.5 43.2614H42C42.4125 43.2614 42.75 42.9239 42.75 42.5114C42.75 42.0989 42.4125 41.7614 42 41.7614Z" fill="#1C1C1C"/>
<path d="M21.75 11.3864C21.75 11.7989 22.0875 12.1364 22.5 12.1364C22.9125 12.1364 23.25 11.7989 23.25 11.3864C23.25 9.68391 21.6525 8.31891 19.5 8.05641V7.25391C19.5 6.84141 19.1625 6.50391 18.75 6.50391C18.3375 6.50391 18 6.84141 18 7.25391V8.05641C15.8475 8.31891 14.25 9.68391 14.25 11.3864C14.25 13.0889 15.8475 14.4539 18 14.7164V18.4439C16.725 18.2264 15.75 17.4914 15.75 16.6364C15.75 16.2239 15.4125 15.8864 15 15.8864C14.5875 15.8864 14.25 16.2239 14.25 16.6364C14.25 18.3389 15.8475 19.7039 18 19.9664V20.7614C18 21.1739 18.3375 21.5114 18.75 21.5114C19.1625 21.5114 19.5 21.1739 19.5 20.7614V19.9664C21.6525 19.7039 23.25 18.3389 23.25 16.6364C23.25 14.9339 21.6525 13.5689 19.5 13.3064V9.57891C20.775 9.79641 21.75 10.5314 21.75 11.3864ZM15.75 11.3864C15.75 10.5314 16.725 9.79641 18 9.57891V13.1864C16.725 12.9689 15.75 12.2339 15.75 11.3789V11.3864ZM21.75 16.6364C21.75 17.4914 20.775 18.2264 19.5 18.4439V14.8364C20.775 15.0539 21.75 15.7889 21.75 16.6439V16.6364Z" fill="#1C1C1C"/>
<path d="M21.75 24.5114H9C8.5875 24.5114 8.25 24.8489 8.25 25.2614C8.25 25.6739 8.5875 26.0114 9 26.0114H21.75C22.1625 26.0114 22.5 25.6739 22.5 25.2614C22.5 24.8489 22.1625 24.5114 21.75 24.5114Z" fill="#1C1C1C"/>
<path d="M21.75 30.5114H9C8.5875 30.5114 8.25 30.8489 8.25 31.2614C8.25 31.6739 8.5875 32.0114 9 32.0114H21.75C22.1625 32.0114 22.5 31.6739 22.5 31.2614C22.5 30.8489 22.1625 30.5114 21.75 30.5114Z" fill="#1C1C1C"/>
<path d="M21.75 36.5114H9C8.5875 36.5114 8.25 36.8489 8.25 37.2614C8.25 37.6739 8.5875 38.0114 9 38.0114H21.75C22.1625 38.0114 22.5 37.6739 22.5 37.2614C22.5 36.8489 22.1625 36.5114 21.75 36.5114Z" fill="#1C1C1C"/>
</svg>
