<svg width="24" height="25" viewBox="0 0 24 25" fill="none" xmlns="http://www.w3.org/2000/svg">
<path d="M18 2.46426V4.46426M6 2.46426V4.46426" stroke="#737373" stroke-width="1.5" stroke-linecap="round" stroke-linejoin="round"/>
<path d="M11.9955 13.4643H12.0045M11.9955 17.4643H12.0045M15.991 13.4643H16M8 13.4643H8.00897M8 17.4643H8.00897" stroke="#737373" stroke-width="2" stroke-linecap="round" stroke-linejoin="round"/>
<path d="M3.5 8.46426H20.5" stroke="#737373" stroke-width="1.5" stroke-linecap="round" stroke-linejoin="round"/>
<path d="M2.5 12.7075C2.5 8.3502 2.5 6.17154 3.75212 4.8179C5.00424 3.46426 7.01949 3.46426 11.05 3.46426H12.95C16.9805 3.46426 18.9958 3.46426 20.2479 4.8179C21.5 6.17154 21.5 8.3502 21.5 12.7075V13.2211C21.5 17.5784 21.5 19.757 20.2479 21.1107C18.9958 22.4643 16.9805 22.4643 12.95 22.4643H11.05C7.01949 22.4643 5.00424 22.4643 3.75212 21.1107C2.5 19.757 2.5 17.5784 2.5 13.2211V12.7075Z" stroke="#737373" stroke-width="1.5" stroke-linecap="round" stroke-linejoin="round"/>
<path d="M3 8.46426H21" stroke="#737373" stroke-width="1.5" stroke-linecap="round" stroke-linejoin="round"/>
</svg>
