<svg width="41" height="40" viewBox="0 0 41 40" fill="none" xmlns="http://www.w3.org/2000/svg">
<path d="M13.8334 22.5001H27.1667M13.8334 14.1667H20.5" stroke="#737373" stroke-width="2.5" stroke-linecap="round" stroke-linejoin="round"/>
<path d="M10.6647 31.6667C8.49787 31.4536 6.87462 30.8027 5.78599 29.7141C3.83337 27.7616 3.83337 24.6187 3.83337 18.3334V17.5001C3.83337 11.2147 3.83337 8.072 5.78599 6.11936C7.73862 4.16675 10.8813 4.16675 17.1667 4.16675H23.8334C30.1187 4.16675 33.2615 4.16675 35.214 6.11936C37.1667 8.072 37.1667 11.2147 37.1667 17.5001V18.3334C37.1667 24.6187 37.1667 27.7616 35.214 29.7141C33.2615 31.6667 30.1187 31.6667 23.8334 31.6667C22.8992 31.6876 22.1552 31.7586 21.4244 31.9251C19.427 32.3849 17.5775 33.4069 15.7498 34.2982C13.1455 35.5681 11.8434 36.2031 11.0262 35.6086C9.46286 34.4442 10.9909 30.8366 11.3334 29.1667" stroke="#737373" stroke-width="2.5" stroke-linecap="round"/>
</svg>
