<svg width="41" height="40" viewBox="0 0 41 40" fill="none" xmlns="http://www.w3.org/2000/svg">
<path d="M35.5 23.1435L35.4998 15.2189C35.4988 13.3268 35.4983 12.3807 35.0383 11.5875C34.5783 10.7942 33.7573 10.331 32.1153 9.40457L23.74 4.67897C22.1563 3.78541 21.3645 3.33862 20.5 3.33862C19.6355 3.33862 18.8437 3.78541 17.26 4.67897L8.88467 9.40457C7.2427 10.331 6.42172 10.7942 5.96167 11.5875C5.5016 12.3807 5.50115 13.3268 5.50022 15.2189L5.5 23.1435C5.5 29.521 5.5 32.7096 7.45262 34.6908C9.40525 36.672 12.5479 36.672 18.8333 36.672H22.1667C28.452 36.672 31.5948 36.672 33.5473 34.6908C35.5 32.7096 35.5 29.521 35.5 23.1435Z" stroke="#737373" stroke-width="1.5" stroke-linecap="round"/>
<path d="M17.1666 21.672H13.8333M27.1666 21.672H23.8333M17.1666 15.0054H13.8333M17.1666 28.3387H13.8333M27.1666 15.0054H23.8333M27.1666 28.3387H23.8333" stroke="#737373" stroke-width="1.5" stroke-linecap="round"/>
</svg>
