<svg width="48" height="49" viewBox="0 0 48 49" fill="none" xmlns="http://www.w3.org/2000/svg">
<path d="M12.9383 21.307C16.2611 23.363 20.0925 24.4492 24 24.4429C32.728 24.4813 37.0644 13.6069 30.7237 7.63701C34.4387 8.98608 37.6458 11.4505 39.906 14.6929C38.6064 16.5551 36.987 18.1723 35.1229 19.4693C34.9638 19.5843 34.856 19.7571 34.8229 19.9506C34.7897 20.1442 34.8338 20.343 34.9456 20.5044C35.0574 20.6658 35.2281 20.7769 35.4209 20.8138C35.6138 20.8508 35.8134 20.8106 35.977 20.702C38.1352 19.2 39.9887 17.3021 41.439 15.1089C41.5212 14.9857 41.5651 14.8409 41.5651 14.6929C41.5651 14.5448 41.5212 14.4 41.439 14.2768C39.5252 11.4057 36.9321 9.05142 33.8899 7.42313C30.8478 5.79483 27.4506 4.94287 24.0001 4.94287C20.5495 4.94287 17.1523 5.79483 14.1102 7.42313C11.068 9.05142 8.47487 11.4057 6.56109 14.2768C6.47904 14.3999 6.43519 14.5445 6.43506 14.6924C6.43493 14.8403 6.47851 14.9849 6.56034 15.1081C8.21126 17.6128 10.3876 19.728 12.9383 21.307ZM12.88 9.91491C14.2406 8.96804 15.7184 8.20212 17.2765 7.63641C16.3232 8.54844 15.5637 9.64351 15.0437 10.856C14.5237 12.0685 14.2537 13.3735 14.25 14.6929C14.3119 15.58 14.3443 18.7309 15.7312 18.3125C15.9193 18.2478 16.0741 18.111 16.1614 17.9323C16.2487 17.7535 16.2614 17.5474 16.1968 17.3592C12.9556 6.95346 27.9709 1.81968 31.8033 12.0271C33.7115 17.1751 29.503 23.0874 23.9999 22.9427C20.8802 22.9503 17.8048 22.2043 15.0354 20.768C12.2659 19.3318 9.88435 17.2479 8.09326 14.6936C9.39379 12.8302 11.0145 11.2123 12.88 9.91491Z" fill="#1C1C1C"/>
<path d="M24 18.7146C29.3164 18.5455 29.3152 10.8372 23.9999 10.6689C18.6836 10.838 18.6849 18.5463 24 18.7146ZM24 12.169C24.664 12.1767 25.2982 12.446 25.7649 12.9182C26.2317 13.3905 26.4935 14.0278 26.4935 14.6918C26.4935 15.3558 26.2317 15.9931 25.7649 16.4654C25.2981 16.9376 24.6639 17.2069 23.9999 17.2146C23.336 17.2068 22.7018 16.9376 22.235 16.4653C21.7682 15.993 21.5065 15.3558 21.5065 14.6917C21.5065 14.0277 21.7683 13.3905 22.2351 12.9182C22.7019 12.4459 23.336 12.1767 24 12.169Z" fill="#1C1C1C"/>
<path d="M24 26.6925C23.8011 26.6925 23.6103 26.7715 23.4697 26.9122C23.329 27.0528 23.25 27.2436 23.25 27.4425V41.5192L21.2574 39.5264C21.1159 39.3903 20.9266 39.3152 20.7302 39.3171C20.5339 39.3191 20.3461 39.3979 20.2073 39.5368C20.0684 39.6756 19.9896 39.8634 19.9876 40.0597C19.9857 40.2561 20.0609 40.4454 20.1969 40.5869L23.4695 43.8599C23.5391 43.9296 23.6218 43.9849 23.7128 44.0226C23.8039 44.0604 23.9014 44.0798 24 44.0798C24.0985 44.0798 24.1961 44.0604 24.2871 44.0226C24.3782 43.9849 24.4609 43.9296 24.5305 43.8599L27.8031 40.5869C27.9392 40.4453 28.0143 40.256 28.0123 40.0597C28.0104 39.8633 27.9315 39.6756 27.7927 39.5367C27.6538 39.3979 27.466 39.319 27.2697 39.3171C27.0733 39.3152 26.8841 39.3903 26.7425 39.5264L24.75 41.5192V27.4425C24.75 27.2436 24.671 27.0528 24.5303 26.9122C24.3897 26.7715 24.1989 26.6925 24 26.6925Z" fill="#1C1C1C"/>
<path d="M3.05823 35.23C3.11875 35.3652 3.21644 35.4804 3.33992 35.5621C3.4634 35.6439 3.60757 35.6889 3.75563 35.6918H8.37854C8.57492 35.688 8.76197 35.6073 8.89949 35.467C9.03701 35.3268 9.11405 35.1382 9.11404 34.9418C9.11403 34.7454 9.03699 34.5568 8.89945 34.4166C8.76192 34.2763 8.57487 34.1956 8.37849 34.1918H5.56165L14.1427 25.6108C14.2123 25.5411 14.2676 25.4585 14.3053 25.3675C14.3429 25.2765 14.3623 25.179 14.3623 25.0805C14.3623 24.982 14.3429 24.8845 14.3053 24.7935C14.2676 24.7025 14.2123 24.6199 14.1427 24.5502C14.0731 24.4806 13.9904 24.4253 13.8994 24.3877C13.8084 24.35 13.7109 24.3306 13.6124 24.3306C13.5139 24.3306 13.4164 24.35 13.3254 24.3877C13.2345 24.4253 13.1518 24.4806 13.0822 24.5502L4.5 33.1324V30.3133C4.49617 30.1169 4.41546 29.9299 4.27522 29.7923C4.13498 29.6548 3.9464 29.5778 3.74998 29.5778C3.55356 29.5778 3.36498 29.6548 3.22475 29.7924C3.08452 29.9299 3.00382 30.1169 3 30.3133V34.9418C3.00026 35.0408 3.02005 35.1387 3.05823 35.23Z" fill="#1C1C1C"/>
<path d="M44.25 29.5632C44.0511 29.5632 43.8603 29.6423 43.7197 29.7829C43.579 29.9236 43.5 30.1143 43.5 30.3132V33.1323L34.9178 24.5502C34.7763 24.4142 34.587 24.3391 34.3907 24.3411C34.1944 24.3431 34.0067 24.4219 33.8679 24.5608C33.7291 24.6996 33.6502 24.8873 33.6482 25.0836C33.6463 25.2799 33.7213 25.4692 33.8573 25.6108L42.4384 34.1918H39.6215C39.4251 34.1956 39.238 34.2763 39.1005 34.4166C38.963 34.5568 38.886 34.7454 38.886 34.9418C38.886 35.1382 38.963 35.3268 39.1005 35.467C39.2381 35.6073 39.4251 35.688 39.6215 35.6918H44.2444C44.4428 35.6887 44.6324 35.6089 44.7733 35.469C44.9142 35.3292 44.9954 35.1402 45 34.9418V30.3132C45 30.1143 44.921 29.9236 44.7803 29.7829C44.6397 29.6423 44.4489 29.5632 44.25 29.5632Z" fill="#1C1C1C"/>
</svg>
