<svg width="48" height="47" viewBox="0 0 48 47" fill="none" xmlns="http://www.w3.org/2000/svg">
<path d="M32.25 39.2614H27.75V35.1769L34.4153 31.0114L27.75 26.8459V22.0114H32.25V16.0114H27.75V10.7614H33.75V0.261353H20.25V10.7614H26.25V16.0114H21.75V18.2614H15V19.7614H21.75V22.0114H26.25V26.8459L19.5848 31.0114L26.25 35.1769V39.2614H21.75C20.5095 39.2614 19.5 40.2709 19.5 41.5114V44.5114C19.5 45.7519 20.5095 46.7614 21.75 46.7614H32.25C33.4905 46.7614 34.5 45.7519 34.5 44.5114V41.5114C34.5 40.2709 33.4905 39.2614 32.25 39.2614ZM21.75 1.76135H32.25V9.26135H21.75V1.76135ZM23.25 17.5114H30.75V20.5114H23.25V17.5114ZM27 28.1456L31.5847 31.0114L27 33.8771L22.4152 31.0114L27 28.1456ZM33 44.5114C33 44.9246 32.6632 45.2614 32.25 45.2614H21.75C21.3368 45.2614 21 44.9246 21 44.5114V41.5114C21 41.0981 21.3368 40.7614 21.75 40.7614H32.25C32.6632 40.7614 33 41.0981 33 41.5114V44.5114Z" fill="#1C1C1C"/>
<path d="M13.7197 40.5416L15.4395 42.2614H8.862C8.6355 41.6261 8.13525 41.1259 7.5 40.8994V25.0114H6V40.8994C5.12925 41.2099 4.5 42.0349 4.5 43.0114C4.5 44.2519 5.5095 45.2614 6.75 45.2614C7.7265 45.2614 8.5515 44.6321 8.862 43.7614H15.4395L13.7197 45.4811L14.7803 46.5416L18.3105 43.0114L14.7803 39.4811L13.7197 40.5416ZM6.75 43.7614C6.33675 43.7614 6 43.4246 6 43.0114C6 42.5981 6.33675 42.2614 6.75 42.2614C7.16325 42.2614 7.5 42.5981 7.5 43.0114C7.5 43.4246 7.16325 43.7614 6.75 43.7614Z" fill="#1C1C1C"/>
<path d="M45.75 28.8994V7.62335C46.6207 7.31285 47.25 6.48785 47.25 5.51135C47.25 4.27085 46.2405 3.26135 45 3.26135C44.0235 3.26135 43.1985 3.8906 42.888 4.76135H35.25V6.26135H42.888C43.1145 6.8966 43.6147 7.39685 44.25 7.62335V28.9001C43.6147 29.1266 43.1145 29.6269 42.888 30.2621H37.8105L39.5302 28.5424L38.4697 27.4819L34.9395 31.0114L38.4697 34.5416L39.5302 33.4811L37.8105 31.7614H42.888C43.1985 32.6321 44.0235 33.2614 45 33.2614C46.2405 33.2614 47.25 32.2519 47.25 31.0114C47.25 30.0349 46.6207 29.2099 45.75 28.8994ZM45 4.76135C45.4132 4.76135 45.75 5.0981 45.75 5.51135C45.75 5.9246 45.4132 6.26135 45 6.26135C44.5867 6.26135 44.25 5.9246 44.25 5.51135C44.25 5.0981 44.5867 4.76135 45 4.76135ZM45 31.7614C44.5867 31.7614 44.25 31.4246 44.25 31.0114C44.25 30.5981 44.5867 30.2614 45 30.2614C45.4132 30.2614 45.75 30.5981 45.75 31.0114C45.75 31.4246 45.4132 31.7614 45 31.7614Z" fill="#1C1C1C"/>
<path d="M13.2907 19.0113L6.74998 14.3396L0.209229 19.0113L6.74998 23.6831L13.2907 19.0113ZM6.74998 16.1831L10.7092 19.0113L6.74998 21.8396L2.79073 19.0113L6.74998 16.1831Z" fill="#1C1C1C"/>
<path d="M23.25 3.26135H30.75V4.76135H23.25V3.26135Z" fill="#1C1C1C"/>
<path d="M23.25 6.26135H27.75V7.76135H23.25V6.26135Z" fill="#1C1C1C"/>
<path d="M29.25 6.26135H30.75V7.76135H29.25V6.26135Z" fill="#1C1C1C"/>
<path d="M42 42.2614H43.5V43.7614H42V42.2614Z" fill="#1C1C1C"/>
<path d="M39 42.2614H40.5V43.7614H39V42.2614Z" fill="#1C1C1C"/>
<path d="M36 42.2614H37.5V43.7614H36V42.2614Z" fill="#1C1C1C"/>
<path d="M14.25 6.26135H15.75V7.76135H14.25V6.26135Z" fill="#1C1C1C"/>
<path d="M17.25 6.26135H18.75V7.76135H17.25V6.26135Z" fill="#1C1C1C"/>
<path d="M11.25 6.26135H12.75V7.76135H11.25V6.26135Z" fill="#1C1C1C"/>
</svg>
