<svg width="41" height="40" viewBox="0 0 41 40" fill="none" xmlns="http://www.w3.org/2000/svg">
<path d="M35.1233 30.0041C36.3722 30.0041 37.3655 29.2183 38.2575 28.1193C40.0832 25.8698 37.0855 24.0721 35.9423 23.1918C34.78 22.2968 33.4823 21.7898 32.1667 21.6708M30.5 18.3375C32.8012 18.3375 34.6667 16.472 34.6667 14.1708C34.6667 11.8696 32.8012 10.0042 30.5 10.0042" stroke="#737373" stroke-width="1.5" stroke-linecap="round"/>
<path d="M5.87662 30.0041C4.62778 30.0041 3.63447 29.2183 2.7426 28.1193C0.916832 25.8698 3.91447 24.0721 5.05777 23.1918C6.21997 22.2968 7.51765 21.7898 8.83335 21.6708M9.66668 18.3375C7.3655 18.3375 5.50002 16.472 5.50002 14.1708C5.50002 11.8696 7.3655 10.0042 9.66668 10.0042" stroke="#737373" stroke-width="1.5" stroke-linecap="round"/>
<path d="M13.973 25.1894C12.2701 26.2424 7.805 28.3926 10.5245 31.0831C11.853 32.3974 13.3325 33.3374 15.1927 33.3374H25.8073C27.6675 33.3374 29.147 32.3974 30.4755 31.0831C33.195 28.3926 28.73 26.2424 27.027 25.1894C23.0335 22.7201 17.9665 22.7201 13.973 25.1894Z" stroke="#737373" stroke-width="1.5" stroke-linecap="round" stroke-linejoin="round"/>
<path d="M26.3334 12.5042C26.3334 15.7259 23.7217 18.3376 20.5 18.3376C17.2784 18.3376 14.6667 15.7259 14.6667 12.5042C14.6667 9.28257 17.2784 6.6709 20.5 6.6709C23.7217 6.6709 26.3334 9.28257 26.3334 12.5042Z" stroke="#737373" stroke-width="1.5"/>
</svg>
