<svg width="25" height="25" viewBox="0 0 25 25" fill="none" xmlns="http://www.w3.org/2000/svg">
<path d="M8.00795 16.028L15.2711 16.0304C19.7587 16.0319 20.4422 13.2129 21.2713 9.1015C21.5104 7.91561 21.63 7.32267 21.3431 6.92751C21.0561 6.53235 20.5058 6.53216 19.4052 6.5318L6.01111 6.52734" stroke="#737373" stroke-width="1.5" stroke-linecap="round"/>
<path d="M8.00795 16.0282L5.39083 3.54225C5.16855 2.65184 4.36878 2.02698 3.45105 2.02668L2.5126 2.02637" stroke="#737373" stroke-width="1.5" stroke-linecap="round"/>
<path d="M8.88797 16.0283L8.47653 16.0282C7.11318 16.0277 6.00758 17.1786 6.00711 18.5987C6.00703 18.8354 6.19117 19.0274 6.4184 19.0275L17.507 19.0312" stroke="#737373" stroke-width="1.5" stroke-linecap="round" stroke-linejoin="round"/>
<path d="M10.506 22.0288C11.3344 22.0291 12.0062 21.3577 12.0065 20.5293C12.0067 19.7009 11.3354 19.0291 10.507 19.0288C9.67853 19.0285 9.00673 19.6999 9.00646 20.5283C9.00618 21.3567 9.67753 22.0285 10.506 22.0288Z" stroke="#737373" stroke-width="1.5"/>
<path d="M17.506 22.0313C18.3344 22.0315 19.0062 21.3602 19.0065 20.5318C19.0067 19.7033 18.3354 19.0315 17.507 19.0313C16.6785 19.031 16.0067 19.7023 16.0065 20.5308C16.0062 21.3592 16.6775 22.031 17.506 22.0313Z" stroke="#737373" stroke-width="1.5"/>
</svg>
