<svg width="41" height="40" viewBox="0 0 41 40" fill="none" xmlns="http://www.w3.org/2000/svg">
<path d="M31.5268 33.3403H32.3438C34.2602 33.3403 35.7845 32.4672 37.1532 31.2463C40.63 28.1447 32.4568 25.007 29.6667 25.007M26.3333 8.45495C26.7118 8.37988 27.1048 8.34033 27.508 8.34033C30.5412 8.34033 33 10.5789 33 13.3403C33 16.1017 30.5412 18.3403 27.508 18.3403C27.1048 18.3403 26.7118 18.3008 26.3333 18.2257" stroke="#737373" stroke-width="1.5" stroke-linecap="round"/>
<path d="M7.96885 26.8591C6.0039 27.9121 0.851898 30.0622 3.9898 32.7527C5.52265 34.0671 7.22985 35.0071 9.3762 35.0071H21.6238C23.7702 35.0071 25.4773 34.0671 27.0102 32.7527C30.1482 30.0622 24.9962 27.9121 23.0312 26.8591C18.4233 24.3897 12.5767 24.3897 7.96885 26.8591Z" stroke="#737373" stroke-width="1.5"/>
<path d="M22.1667 12.507C22.1667 16.1889 19.1818 19.1737 15.5 19.1737C11.8181 19.1737 8.83334 16.1889 8.83334 12.507C8.83334 8.8251 11.8181 5.84033 15.5 5.84033C19.1818 5.84033 22.1667 8.8251 22.1667 12.507Z" stroke="#737373" stroke-width="1.5"/>
</svg>
