<svg width="24" height="25" viewBox="0 0 24 25" fill="none" xmlns="http://www.w3.org/2000/svg">
<path d="M12.0063 22.4643C17.5292 22.4643 22.0063 17.9871 22.0063 12.4643C22.0063 6.94142 17.5292 2.46426 12.0063 2.46426C6.4835 2.46426 2.00635 6.94142 2.00635 12.4643C2.00635 17.9871 6.4835 22.4643 12.0063 22.4643Z" stroke="#737373" stroke-width="1.5"/>
<path d="M7.50635 17.4643C9.83805 15.0221 14.1495 14.9071 16.5063 17.4643M14.5014 9.96426C14.5014 11.345 13.3805 12.4643 11.9978 12.4643C10.6152 12.4643 9.49432 11.345 9.49432 9.96426C9.49432 8.58355 10.6152 7.46426 11.9978 7.46426C13.3805 7.46426 14.5014 8.58355 14.5014 9.96426Z" stroke="#737373" stroke-width="1.5" stroke-linecap="round"/>
</svg>
