<svg width="129" height="94" viewBox="0 0 129 94" fill="none" xmlns="http://www.w3.org/2000/svg">
<path d="M0.954082 35.6569C0.583461 36.0664 0.614946 36.6988 1.02441 37.0694C1.43387 37.44 2.06625 37.4085 2.43687 36.9991L0.954082 35.6569ZM34.2538 24.2643L33.9924 25.2295L34.2538 24.2643ZM54.4393 51.3016L53.5234 50.9003L54.4393 51.3016ZM42.0187 57.4429L42.3632 56.5042L42.0187 57.4429ZM36.6493 46.5034L37.6465 46.5776L36.6493 46.5034ZM70.2524 32.6232L70.5583 31.6711L70.2524 32.6232ZM87.8349 59.0452L88.7695 59.4009L87.8349 59.0452ZM78.6453 63.9457L78.8164 62.9604L78.6453 63.9457ZM72.6479 54.8623L73.6478 54.8455L72.6479 54.8623ZM110.16 40.8724L109.68 41.7498L110.16 40.8724ZM125.708 63.901L125.103 64.6973C125.394 64.918 125.781 64.963 126.115 64.8146C126.448 64.6663 126.674 64.3482 126.705 63.9847L125.708 63.901ZM119.013 57.5588C118.573 57.2247 117.946 57.3104 117.612 57.7501C117.278 58.1899 117.363 58.8172 117.803 59.1513L119.013 57.5588ZM127.51 54.3914C127.556 53.841 127.148 53.3574 126.597 53.3112C126.047 53.265 125.563 53.6737 125.517 54.2241L127.51 54.3914ZM125.825 61.3246C125.624 60.8103 125.044 60.5563 124.529 60.7575C124.015 60.9586 123.761 61.5386 123.962 62.053L125.825 61.3246ZM122.131 57.7778C122.364 58.2784 122.959 58.4951 123.46 58.2619C123.961 58.0286 124.177 57.4337 123.944 56.9331L122.131 57.7778ZM121.776 52.6634C121.508 52.1803 120.9 52.0056 120.417 52.2733C119.933 52.5409 119.759 53.1495 120.026 53.6326L121.776 52.6634ZM117.613 49.6835C117.923 50.1406 118.545 50.26 119.002 49.9501C119.459 49.6402 119.579 49.0184 119.269 48.5613L117.613 49.6835ZM116.316 44.7212C115.95 44.3074 115.318 44.2683 114.904 44.6341C114.49 44.9998 114.451 45.6318 114.817 46.0456L116.316 44.7212ZM111.533 42.9545C111.974 43.287 112.601 43.1991 112.934 42.7581C113.266 42.3172 113.178 41.6901 112.737 41.3576L111.533 42.9545ZM108.43 38.9563C107.918 38.7503 107.335 38.9988 107.129 39.5113C106.923 40.0237 107.172 40.6061 107.684 40.812L108.43 38.9563ZM103.395 39.5537C103.937 39.6625 104.464 39.3118 104.573 38.7704C104.682 38.2289 104.331 37.7017 103.789 37.5929L103.395 39.5537ZM99.0306 36.998C98.4791 36.9679 98.0077 37.3906 97.9776 37.942C97.9475 38.4935 98.3702 38.9649 98.9216 38.995L99.0306 36.998ZM94.3959 39.0402C94.9467 38.9998 95.3605 38.5206 95.3202 37.9698C95.2798 37.419 94.8005 37.0052 94.2497 37.0456L94.3959 39.0402ZM89.5137 37.6947C88.9725 37.8046 88.6228 38.3324 88.7327 38.8736C88.8426 39.4149 89.3704 39.7646 89.9117 39.6547L89.5137 37.6947ZM85.5626 40.8538C86.0829 40.6688 86.3548 40.097 86.1699 39.5766C85.9849 39.0562 85.4131 38.7843 84.8927 38.9693L85.5626 40.8538ZM80.4961 40.9583C80.0155 41.2303 79.8465 41.8405 80.1185 42.3211C80.3906 42.8018 81.0008 42.9708 81.4814 42.6987L80.4961 40.9583ZM77.8979 45.2811C78.3033 44.9061 78.328 44.2734 77.9531 43.868C77.5781 43.4625 76.9454 43.4378 76.5399 43.8128L77.8979 45.2811ZM73.448 47.6729C73.1767 48.1539 73.3467 48.7638 73.8277 49.0352C74.3087 49.3065 74.9187 49.1365 75.19 48.6555L73.448 47.6729ZM73.7913 52.6886C73.8754 52.1427 73.5011 51.6321 72.9552 51.5479C72.4094 51.4638 71.8987 51.8382 71.8146 52.384L73.7913 52.6886ZM71.9663 58.0275C72.075 58.5689 72.6021 58.9197 73.1436 58.811C73.6851 58.7022 74.0359 58.1751 73.9271 57.6337L71.9663 58.0275ZM76.4594 62.0348C76.0057 61.7199 75.3826 61.8325 75.0677 62.2862C74.7529 62.7399 74.8654 63.363 75.3191 63.6779L76.4594 62.0348ZM81.588 65.0707C82.1376 65.0166 82.5394 64.5272 82.4853 63.9776C82.4312 63.4279 81.9418 63.0262 81.3922 63.0803L81.588 65.0707ZM85.6555 60.8779C85.3037 61.3036 85.3635 61.934 85.7892 62.2858C86.2149 62.6376 86.8453 62.5778 87.1971 62.1521L85.6555 60.8779ZM89.4573 57.1525C89.5823 56.6145 89.2476 56.0771 88.7096 55.9521C88.1717 55.8271 87.6342 56.1619 87.5092 56.6998L89.4573 57.1525ZM87.8564 52.5849C87.8904 53.1361 88.3648 53.5554 88.9161 53.5214C89.4673 53.4873 89.8866 53.0129 89.8526 52.4617L87.8564 52.5849ZM88.9118 47.8637C88.7296 47.3424 88.1592 47.0675 87.6378 47.2497C87.1165 47.432 86.8416 48.0023 87.0238 48.5237L88.9118 47.8637ZM85.1785 44.7575C85.4749 45.2235 86.093 45.361 86.559 45.0646C87.025 44.7682 87.1625 44.1502 86.8661 43.6841L85.1785 44.7575ZM84.0259 40.0474C83.648 39.6447 83.0151 39.6246 82.6124 40.0026C82.2097 40.3805 82.1896 41.0134 82.5676 41.4161L84.0259 40.0474ZM79.4023 38.5471C79.8387 38.8855 80.4669 38.806 80.8053 38.3695C81.1436 37.933 81.0641 37.3048 80.6276 36.9665L79.4023 38.5471ZM76.823 34.431C76.3431 34.1576 75.7324 34.325 75.4591 34.8049C75.1857 35.2848 75.3531 35.8954 75.8329 36.1688L76.823 34.431ZM71.9656 34.3033C72.4783 34.5086 73.0603 34.2595 73.2657 33.7468C73.471 33.2341 73.2218 32.652 72.7091 32.4467L71.9656 34.3033ZM67.9853 30.9522C67.4482 30.8236 66.9086 31.1548 66.78 31.6919C66.6514 32.229 66.9826 32.7687 67.5197 32.8972L67.9853 30.9522ZM62.5384 32.0734C63.0882 32.1255 63.5761 31.722 63.6282 31.1722C63.6803 30.6223 63.2768 30.1344 62.727 30.0823L62.5384 32.0734ZM57.3996 29.9465C56.8479 29.9711 56.4205 30.4383 56.4451 30.99C56.4696 31.5418 56.9368 31.9691 57.4885 31.9446L57.3996 29.9465ZM52.4888 32.5432C53.0303 32.4346 53.3813 31.9076 53.2727 31.3661C53.1642 30.8246 52.6372 30.4736 52.0957 30.5822L52.4888 32.5432ZM46.9434 32.1088C46.4317 32.3167 46.1854 32.9 46.3932 33.4116C46.6011 33.9233 47.1844 34.1696 47.6961 33.9618L46.9434 32.1088ZM43.3775 36.3436C43.822 36.0157 43.9165 35.3896 43.5887 34.9452C43.2609 34.5007 42.6348 34.4062 42.1903 34.734L43.3775 36.3436ZM38.339 38.6566C38.0247 39.1108 38.1381 39.7337 38.5922 40.048C39.0464 40.3623 39.6693 40.2489 39.9836 39.7947L38.339 38.6566ZM38.0213 44.1769C38.1521 43.6404 37.8232 43.0993 37.2867 42.9685C36.7501 42.8376 36.2091 43.1665 36.0782 43.7031L38.0213 44.1769ZM35.6733 49.8978C35.7284 50.4474 36.2186 50.8482 36.7681 50.793C37.3176 50.7379 37.7184 50.2477 37.6633 49.6982L35.6733 49.8978ZM39.9214 55.0101C39.524 54.6265 38.8909 54.6378 38.5074 55.0352C38.1238 55.4326 38.1351 56.0656 38.5325 56.4492L39.9214 55.0101ZM43.7377 58.8745C44.2863 58.9378 44.7824 58.5443 44.8456 57.9957C44.9089 57.447 44.5154 56.951 43.9668 56.8877L43.7377 58.8745ZM47.2453 56.4983C46.7231 56.6782 46.4456 57.2473 46.6255 57.7695C46.8053 58.2916 47.3744 58.5692 47.8966 58.3893L47.2453 56.4983ZM51.476 56.4167C51.9124 56.0782 51.9917 55.45 51.6532 55.0136C51.3147 54.5772 50.6865 54.4979 50.2502 54.8364L51.476 56.4167ZM52.6762 52.3421C52.3529 52.7898 52.4537 53.4149 52.9014 53.7382C53.3491 54.0616 53.9742 53.9608 54.2976 53.513L52.6762 52.3421ZM56.1486 49.2841C56.2691 48.7451 55.9299 48.2105 55.391 48.0899C54.852 47.9694 54.3174 48.3085 54.1968 48.8475L56.1486 49.2841ZM54.3355 44.5284C54.415 45.075 54.9225 45.4536 55.4691 45.3741C56.0156 45.2946 56.3942 44.7871 56.3147 44.2405L54.3355 44.5284ZM54.8784 39.4757C54.6494 38.9731 54.0564 38.7513 53.5538 38.9802C53.0512 39.2092 52.8294 39.8022 53.0583 40.3048L54.8784 39.4757ZM50.7582 36.4464C51.087 36.8902 51.7132 36.9833 52.157 36.6545C52.6007 36.3258 52.6939 35.6995 52.3651 35.2557L50.7582 36.4464ZM49.139 31.604C48.741 31.221 48.108 31.2331 47.725 31.631C47.342 32.029 47.3542 32.662 47.7521 33.045L49.139 31.604ZM44.2407 30.1322C44.6899 30.4536 45.3145 30.3499 45.6359 29.9008C45.9572 29.4516 45.8536 28.827 45.4044 28.5056L44.2407 30.1322ZM41.2784 25.966C40.7892 25.7096 40.1849 25.8984 39.9285 26.3876C39.6722 26.8768 39.8609 27.4812 40.3501 27.7375L41.2784 25.966ZM36.1677 25.9087C36.6884 26.093 37.2598 25.8203 37.4441 25.2997C37.6284 24.779 37.3557 24.2076 36.8351 24.0233L36.1677 25.9087ZM32.1981 22.7884C31.6537 22.6954 31.137 23.0614 31.0439 23.6058C30.9509 24.1502 31.3169 24.6669 31.8613 24.7599L32.1981 22.7884ZM27.5214 24.4356C28.0736 24.4254 28.5129 23.9695 28.5027 23.4173C28.4925 22.8651 28.0366 22.4257 27.4844 22.4359L27.5214 24.4356ZM22.7972 22.9355C22.2549 23.0401 21.9 23.5645 22.0046 24.1068C22.1091 24.6491 22.6335 25.0039 23.1758 24.8994L22.7972 22.9355ZM18.9349 26.058C19.4558 25.8745 19.7294 25.3035 19.5459 24.7826C19.3624 24.2616 18.7914 23.9881 18.2705 24.1716L18.9349 26.058ZM13.9733 26.0025C13.4792 26.2493 13.2788 26.8499 13.5257 27.344C13.7725 27.838 14.3731 28.0384 14.8672 27.7916L13.9733 26.0025ZM11.0096 29.9873C11.4749 29.6898 11.611 29.0714 11.3135 28.6061C11.016 28.1408 10.3976 28.0047 9.93231 28.3022L11.0096 29.9873ZM6.1429 30.9848C5.70722 31.3242 5.62919 31.9525 5.9686 32.3882C6.30802 32.8239 6.93636 32.9019 7.37203 32.5625L6.1429 30.9848ZM3.98479 35.4562C4.3874 35.0782 4.4073 34.4453 4.02924 34.0427C3.65118 33.6401 3.01833 33.6202 2.61572 33.9983L3.98479 35.4562ZM124.488 61.7182C124.048 61.3841 123.421 61.4698 123.087 61.9096C122.753 62.3493 122.838 62.9767 123.278 63.3108L124.488 61.7182ZM119.628 60.5378C120.068 60.8719 120.695 60.7863 121.029 60.3465C121.363 59.9067 121.278 59.2794 120.838 58.9453L119.628 60.5378ZM126.906 61.5863C126.952 61.036 126.544 60.5524 125.993 60.5062C125.443 60.46 124.959 60.8687 124.913 61.419L126.906 61.5863ZM125.316 56.6224C125.27 57.1727 125.678 57.6563 126.229 57.7025C126.779 57.7487 127.262 57.3401 127.309 56.7897L125.316 56.6224ZM125.708 63.901C126.657 63.5864 126.657 63.5864 126.657 63.5864C126.657 63.5863 126.657 63.5863 126.657 63.5862C126.657 63.5862 126.657 63.5861 126.657 63.586C126.657 63.5858 126.657 63.5855 126.657 63.5852C126.657 63.5846 126.657 63.5837 126.656 63.5827C126.655 63.5806 126.655 63.5777 126.653 63.574C126.651 63.5667 126.647 63.5561 126.643 63.5423C126.633 63.5148 126.62 63.4748 126.602 63.4227C126.566 63.3187 126.513 63.1667 126.443 62.9718C126.304 62.582 126.097 62.0199 125.825 61.3246L123.962 62.053C124.226 62.7286 124.427 63.2726 124.56 63.6461C124.627 63.8329 124.677 63.977 124.711 64.0735C124.727 64.1218 124.74 64.1581 124.748 64.182C124.752 64.194 124.755 64.2028 124.757 64.2084C124.757 64.2112 124.758 64.2132 124.759 64.2144C124.759 64.215 124.759 64.2154 124.759 64.2156C124.759 64.2157 124.759 64.2157 124.759 64.2157C124.759 64.2157 124.759 64.2157 124.759 64.2157C124.759 64.2157 124.759 64.2156 124.759 64.2156C124.759 64.2156 124.759 64.2156 125.708 63.901ZM123.944 56.9331C123.322 55.5982 122.597 54.1464 121.776 52.6634L120.026 53.6326C120.822 55.0684 121.525 56.4779 122.131 57.7778L123.944 56.9331ZM119.269 48.5613C118.363 47.2254 117.378 45.923 116.316 44.7212L114.817 46.0456C115.812 47.1718 116.746 48.4041 117.613 49.6835L119.269 48.5613ZM112.737 41.3576C112.064 40.8496 111.364 40.391 110.64 39.995L109.68 41.7498C110.31 42.0943 110.928 42.4984 111.533 42.9545L112.737 41.3576ZM110.64 39.995C109.938 39.6112 109.199 39.2653 108.43 38.9563L107.684 40.812C108.386 41.0939 109.053 41.4067 109.68 41.7498L110.64 39.995ZM103.789 37.5929C102.254 37.2843 100.656 37.0867 99.0306 36.998L98.9216 38.995C100.458 39.0789 101.961 39.2652 103.395 39.5537L103.789 37.5929ZM94.2497 37.0456C92.6592 37.1621 91.0702 37.3786 89.5137 37.6947L89.9117 39.6547C91.3832 39.3559 92.888 39.1507 94.3959 39.0402L94.2497 37.0456ZM84.8927 38.9693C83.347 39.5188 81.8685 40.1813 80.4961 40.9583L81.4814 42.6987C82.743 41.9845 84.1146 41.3685 85.5626 40.8538L84.8927 38.9693ZM76.5399 43.8128C75.309 44.9512 74.2577 46.2375 73.448 47.6729L75.19 48.6555C75.8863 47.4211 76.8014 46.2951 77.8979 45.2811L76.5399 43.8128ZM71.8146 52.384C71.6907 53.1884 71.6336 54.0204 71.6481 54.8791L73.6478 54.8455C73.6352 54.0974 73.685 53.3786 73.7913 52.6886L71.8146 52.384ZM71.6481 54.8791C71.6663 55.9607 71.7643 57.0217 71.9663 58.0275L73.9271 57.6337C73.7534 56.7689 73.6644 55.8313 73.6478 54.8455L71.6481 54.8791ZM75.3191 63.6779C76.2058 64.2932 77.2558 64.7193 78.4742 64.9309L78.8164 62.9604C77.8589 62.7942 77.0864 62.4699 76.4594 62.0348L75.3191 63.6779ZM78.4742 64.9309C79.568 65.1209 80.6091 65.167 81.588 65.0707L81.3922 63.0803C80.6129 63.157 79.7537 63.1232 78.8164 62.9604L78.4742 64.9309ZM87.1971 62.1521C87.8516 61.3602 88.376 60.4347 88.7695 59.4009L86.9003 58.6894C86.5758 59.5421 86.1559 60.2724 85.6555 60.8779L87.1971 62.1521ZM88.7695 59.4009C89.0551 58.6505 89.2835 57.9005 89.4573 57.1525L87.5092 56.6998C87.3562 57.3584 87.1543 58.0221 86.9003 58.6894L88.7695 59.4009ZM89.8526 52.4617C89.7552 50.8835 89.4295 49.3449 88.9118 47.8637L87.0238 48.5237C87.4852 49.8435 87.771 51.2018 87.8564 52.5849L89.8526 52.4617ZM86.8661 43.6841C86.0511 42.4027 85.0947 41.1861 84.0259 40.0474L82.5676 41.4161C83.5579 42.4712 84.4359 43.5897 85.1785 44.7575L86.8661 43.6841ZM80.6276 36.9665C79.431 36.0389 78.1552 35.19 76.823 34.431L75.8329 36.1688C77.0854 36.8823 78.2824 37.679 79.4023 38.5471L80.6276 36.9665ZM72.7091 32.4467C72.0002 32.1628 71.2824 31.9038 70.5583 31.6711L69.9465 33.5753C70.6256 33.7934 71.2995 34.0366 71.9656 34.3033L72.7091 32.4467ZM70.5583 31.6711C69.7167 31.4007 68.8573 31.1609 67.9853 30.9522L67.5197 32.8972C68.3439 33.0945 69.1544 33.3207 69.9465 33.5753L70.5583 31.6711ZM62.727 30.0823C60.9545 29.9144 59.1665 29.8679 57.3996 29.9465L57.4885 31.9446C59.1612 31.8701 60.8564 31.9141 62.5384 32.0734L62.727 30.0823ZM52.0957 30.5822C50.3024 30.9417 48.5696 31.4482 46.9434 32.1088L47.6961 33.9618C49.1947 33.353 50.8058 32.8805 52.4888 32.5432L52.0957 30.5822ZM42.1903 34.734C40.6946 35.8373 39.3872 37.1419 38.339 38.6566L39.9836 39.7947C40.8936 38.4797 42.0402 37.33 43.3775 36.3436L42.1903 34.734ZM36.0782 43.7031C35.8662 44.5724 35.7226 45.4812 35.652 46.4292L37.6465 46.5776C37.7091 45.736 37.8361 44.9362 38.0213 44.1769L36.0782 43.7031ZM35.652 46.4292C35.5769 47.4393 35.5473 48.6419 35.6733 49.8978L37.6633 49.6982C37.5525 48.5937 37.5769 47.5142 37.6465 46.5776L35.652 46.4292ZM38.5325 56.4492C39.3625 57.2502 40.3985 57.9135 41.6741 58.3817L42.3632 56.5042C41.3392 56.1284 40.544 55.6109 39.9214 55.0101L38.5325 56.4492ZM41.6741 58.3817C42.3653 58.6354 43.0553 58.7959 43.7377 58.8745L43.9668 56.8877C43.4406 56.827 42.9051 56.7031 42.3632 56.5042L41.6741 58.3817ZM47.8966 58.3893C49.2209 57.9332 50.4304 57.2277 51.476 56.4167L50.2502 54.8364C49.3462 55.5376 48.3277 56.1255 47.2453 56.4983L47.8966 58.3893ZM54.2976 53.513C54.7388 52.9021 55.0995 52.2867 55.3552 51.7029L53.5234 50.9003C53.3347 51.3309 53.0507 51.8235 52.6762 52.3421L54.2976 53.513ZM55.3552 51.7029C55.7028 50.9096 55.9657 50.1017 56.1486 49.2841L54.1968 48.8475C54.0419 49.5399 53.8191 50.2253 53.5234 50.9003L55.3552 51.7029ZM56.3147 44.2405C56.08 42.6274 55.5856 41.0283 54.8784 39.4757L53.0583 40.3048C53.6971 41.7071 54.1313 43.1246 54.3355 44.5284L56.3147 44.2405ZM52.3651 35.2557C51.4191 33.979 50.3347 32.7548 49.139 31.604L47.7521 33.045C48.8732 34.124 49.8828 35.265 50.7582 36.4464L52.3651 35.2557ZM45.4044 28.5056C44.1012 27.5733 42.719 26.7209 41.2784 25.966L40.3501 27.7375C41.7086 28.4494 43.0122 29.2534 44.2407 30.1322L45.4044 28.5056ZM36.8351 24.0233C36.0708 23.7528 35.2966 23.5106 34.5151 23.299L33.9924 25.2295C34.7239 25.4276 35.4499 25.6546 36.1677 25.9087L36.8351 24.0233ZM34.5151 23.299C33.7384 23.0887 32.9656 22.9196 32.1981 22.7884L31.8613 24.7599C32.5669 24.8804 33.2776 25.036 33.9924 25.2295L34.5151 23.299ZM27.4844 22.4359C25.8796 22.4656 24.3134 22.6433 22.7972 22.9355L23.1758 24.8994C24.5886 24.6271 26.0403 24.463 27.5214 24.4356L27.4844 22.4359ZM18.2705 24.1716C16.7648 24.702 15.328 25.3257 13.9733 26.0025L14.8672 27.7916C16.156 27.1477 17.5162 26.5577 18.9349 26.058L18.2705 24.1716ZM9.93231 28.3022C8.52633 29.201 7.25563 30.1179 6.1429 30.9848L7.37203 32.5625C8.44231 31.7287 9.66234 30.8485 11.0096 29.9873L9.93231 28.3022ZM2.61572 33.9983C2.08477 34.4968 1.6731 34.9074 1.39241 35.1952C1.25204 35.3392 1.14437 35.4525 1.07084 35.5309C1.03408 35.5701 1.00584 35.6005 0.986324 35.6217C0.976564 35.6323 0.968982 35.6406 0.963601 35.6465C0.960911 35.6494 0.95877 35.6518 0.957182 35.6535C0.956389 35.6544 0.955734 35.6551 0.955216 35.6557C0.954958 35.656 0.954734 35.6562 0.954545 35.6564C0.954451 35.6565 0.954365 35.6566 0.954288 35.6567C0.954249 35.6568 0.954198 35.6568 0.954179 35.6568C0.954129 35.6569 0.954082 35.6569 1.69548 36.328C2.43687 36.9991 2.43683 36.9991 2.43679 36.9992C2.43678 36.9992 2.43674 36.9992 2.43672 36.9993C2.43667 36.9993 2.43664 36.9993 2.43662 36.9994C2.43656 36.9994 2.43655 36.9994 2.43656 36.9994C2.4366 36.9994 2.43677 36.9992 2.43708 36.9989C2.4377 36.9982 2.43886 36.9969 2.44057 36.995C2.44399 36.9913 2.44959 36.9852 2.45733 36.9768C2.47283 36.9599 2.49694 36.9339 2.52947 36.8992C2.59454 36.8299 2.69331 36.7259 2.8243 36.5915C3.08633 36.3228 3.47705 35.933 3.98479 35.4562L2.61572 33.9983ZM126.313 63.1047L124.488 61.7182L123.278 63.3108L125.103 64.6973L126.313 63.1047ZM120.838 58.9453L119.013 57.5588L117.803 59.1513L119.628 60.5378L120.838 58.9453ZM126.705 63.9847L126.906 61.5863L124.913 61.419L124.712 63.8173L126.705 63.9847ZM127.309 56.7897L127.51 54.3914L125.517 54.2241L125.316 56.6224L127.309 56.7897Z" fill="#212121"/>
</svg>
